<?xml version="1.0" standalone="no"?>
<!DOCTYPE svg PUBLIC "-//W3C//DTD SVG 20010904//EN"
 "http://www.w3.org/TR/2001/REC-SVG-20010904/DTD/svg10.dtd">
<svg version="1.0" xmlns="http://www.w3.org/2000/svg"
 width="635.000000pt" height="635.000000pt" viewBox="0 0 635.000000 635.000000"
 preserveAspectRatio="xMidYMid meet">

<g transform="translate(0.000000,635.000000) scale(0.100000,-0.100000)"
fill="#000000" stroke="none">
<path d="M0 5585 l0 -765 765 0 765 0 0 765 0 765 -765 0 -765 0 0 -765z
m1310 0 l0 -545 -545 0 -545 0 0 545 0 545 545 0 545 0 0 -545z"/>
<path d="M440 5580 l0 -330 330 0 330 0 0 330 0 330 -330 0 -330 0 0 -330z"/>
<path d="M1750 6240 l0 -110 110 0 110 0 0 -110 0 -110 -110 0 -110 0 0 -330
0 -330 110 0 110 0 0 110 0 110 220 0 220 0 0 -110 0 -110 -110 0 -110 0 0
-545 0 -545 -110 0 -110 0 0 220 0 220 -110 0 -110 0 0 -110 0 -110 -110 0
-110 0 0 110 0 110 -110 0 -110 0 0 -110 0 -110 110 0 110 0 0 -110 0 -110
-110 0 -110 0 0 -110 0 -110 -105 0 -105 0 0 -110 0 -110 -110 0 -110 0 0 220
0 220 -220 0 -220 0 0 110 0 110 220 0 220 0 0 110 0 110 -440 0 -440 0 0
-110 0 -110 110 0 110 0 0 -440 0 -440 110 0 110 0 0 -110 0 -110 -110 0 -110
0 0 -105 0 -105 -110 0 -110 0 0 -110 0 -110 110 0 110 0 0 -220 0 -220 -110
0 -110 0 0 -110 0 -110 110 0 110 0 0 110 0 110 110 0 110 0 0 220 0 220 110
0 110 0 0 -330 0 -330 110 0 110 0 0 -220 0 -220 325 0 325 0 0 110 0 110
-110 0 -110 0 0 110 0 110 110 0 110 0 0 110 0 110 110 0 110 0 0 -110 0 -110
110 0 110 0 0 -110 0 -110 -110 0 -110 0 0 -220 0 -220 110 0 110 0 0 -220 0
-220 110 0 110 0 0 -105 0 -105 -220 0 -220 0 0 -440 0 -440 110 0 110 0 0
110 0 110 110 0 110 0 0 -110 0 -110 220 0 220 0 0 110 0 110 220 0 220 0 0
110 0 110 105 0 105 0 0 -110 0 -110 110 0 110 0 0 -110 0 -110 110 0 110 0 0
220 0 220 -220 0 -220 0 0 110 0 110 110 0 110 0 0 110 0 110 220 0 220 0 0
-110 0 -110 110 0 110 0 0 -110 0 -110 -110 0 -110 0 0 -110 0 -110 110 0 110
0 0 -110 0 -110 220 0 220 0 0 110 0 110 110 0 110 0 0 -110 0 -110 435 0 435
0 0 110 0 110 -110 0 -110 0 0 110 0 110 -105 0 -105 0 0 110 0 110 215 0 215
0 0 110 0 110 220 0 220 0 0 -220 0 -220 -110 0 -110 0 0 -220 0 -220 110 0
110 0 0 220 0 220 110 0 110 0 0 325 0 325 -330 0 -330 0 0 -105 0 -105 -110
0 -110 0 0 435 0 435 110 0 110 0 0 -110 0 -110 110 0 110 0 0 -110 0 -110
110 0 110 0 0 110 0 110 110 0 110 0 0 330 0 330 -110 0 -110 0 0 -220 0 -220
-110 0 -110 0 0 220 0 220 -220 0 -220 0 0 110 0 110 220 0 220 0 0 110 0 110
-220 0 -220 0 0 110 0 110 110 0 110 0 0 110 0 110 110 0 110 0 0 105 0 105
110 0 110 0 0 -215 0 -215 110 0 110 0 0 325 0 325 -110 0 -110 0 0 110 0 110
110 0 110 0 0 110 0 110 -110 0 -110 0 0 110 0 110 110 0 110 0 0 220 0 220
-110 0 -110 0 0 -220 0 -220 -330 0 -330 0 0 110 0 110 220 0 220 0 0 110 0
110 -325 0 -325 0 0 -110 0 -110 -220 0 -220 0 0 110 0 110 -110 0 -110 0 0
-110 0 -110 -110 0 -110 0 0 110 0 110 -220 0 -220 0 0 110 0 110 110 0 110 0
0 110 0 110 110 0 110 0 0 -110 0 -110 110 0 110 0 0 215 0 215 -110 0 -110 0
0 220 0 220 110 0 110 0 0 220 0 220 -110 0 -110 0 0 110 0 110 -110 0 -110 0
0 -110 0 -110 110 0 110 0 0 -220 0 -220 -110 0 -110 0 0 -325 0 -325 -110 0
-110 0 0 -110 0 -110 -110 0 -110 0 0 325 0 325 110 0 110 0 0 110 0 110 -110
0 -110 0 0 110 0 110 110 0 110 0 0 110 0 110 -110 0 -110 0 0 110 0 110 -110
0 -110 0 0 -330 0 -330 -110 0 -110 0 0 110 0 110 -215 0 -215 0 0 110 0 110
110 0 110 0 0 110 0 110 -220 0 -220 0 0 -110 0 -110 -110 0 -110 0 0 110 0
110 -110 0 -110 0 0 -110 0 -110 -110 0 -110 0 0 110 0 110 -110 0 -110 0 0
-110z m1100 -440 l0 -110 -110 0 -110 0 0 -110 0 -110 -110 0 -110 0 0 220 0
220 220 0 220 0 0 -110z m870 -220 l0 -110 -110 0 -110 0 0 110 0 110 110 0
110 0 0 -110z m-440 -220 l0 -110 110 0 110 0 0 -325 0 -325 110 0 110 0 0
-110 0 -110 110 0 110 0 0 -110 0 -110 220 0 220 0 0 -110 0 -110 110 0 110 0
0 110 0 110 110 0 110 0 0 -110 0 -110 110 0 110 0 0 -110 0 -110 110 0 110 0
0 220 0 220 105 0 105 0 0 -110 0 -110 220 0 220 0 0 -110 0 -110 -220 0 -220
0 0 -110 0 -110 110 0 110 0 0 -215 0 -215 -110 0 -110 0 0 105 0 105 -105 0
-105 0 0 -105 0 -105 -440 0 -440 0 0 215 0 215 110 0 110 0 0 110 0 110 -220
0 -220 0 0 -220 0 -220 -110 0 -110 0 0 -435 0 -435 110 0 110 0 0 220 0 220
110 0 110 0 0 -330 0 -330 220 0 220 0 0 220 0 220 -110 0 -110 0 0 110 0 110
330 0 330 0 0 -110 0 -110 105 0 105 0 0 -110 0 -110 -105 0 -105 0 0 110 0
110 -110 0 -110 0 0 -220 0 -220 110 0 110 0 0 -110 0 -110 -440 0 -440 0 0
110 0 110 -110 0 -110 0 0 -110 0 -110 -110 0 -110 0 0 110 0 110 -110 0 -110
0 0 -110 0 -110 -110 0 -110 0 0 330 0 330 110 0 110 0 0 110 0 110 -110 0
-110 0 0 110 0 110 -110 0 -110 0 0 -220 0 -220 -105 0 -105 0 0 110 0 110
-220 0 -220 0 0 -110 0 -110 110 0 110 0 0 -110 0 -110 110 0 110 0 0 -110 0
-110 105 0 105 0 0 -110 0 -110 -105 0 -105 0 0 -110 0 -110 -110 0 -110 0 0
-110 0 -110 110 0 110 0 0 -110 0 -110 -330 0 -330 0 0 -110 0 -110 -110 0
-110 0 0 440 0 440 220 0 220 0 0 110 0 110 -220 0 -220 0 0 110 0 110 -110 0
-110 0 0 110 0 110 110 0 110 0 0 110 0 110 220 0 220 0 0 215 0 215 110 0
110 0 0 -105 0 -105 215 0 215 0 0 105 0 105 110 0 110 0 0 -105 0 -105 110 0
110 0 0 105 0 105 110 0 110 0 0 220 0 220 -110 0 -110 0 0 110 0 110 -110 0
-110 0 0 -110 0 -110 -215 0 -215 0 0 220 0 220 -110 0 -110 0 0 440 0 440
-110 0 -110 0 0 -220 0 -220 -110 0 -110 0 0 220 0 220 110 0 110 0 0 105 0
105 110 0 110 0 0 110 0 110 215 0 215 0 0 -110z m-650 -1090 l0 -110 -110 0
-110 0 0 110 0 110 110 0 110 0 0 -110z m-660 -440 l0 -330 -110 0 -110 0 0
-435 0 -435 -110 0 -110 0 0 -110 0 -110 -110 0 -110 0 0 -110 0 -110 -215 0
-215 0 0 220 0 220 110 0 110 0 0 -110 0 -110 105 0 105 0 0 110 0 110 110 0
110 0 0 110 0 110 -110 0 -110 0 0 110 0 110 110 0 110 0 0 105 0 105 -110 0
-110 0 0 110 0 110 -105 0 -105 0 0 110 0 110 105 0 105 0 0 110 0 110 220 0
220 0 0 110 0 110 110 0 110 0 0 -330z m-1310 -110 l0 -220 110 0 110 0 0
-215 0 -215 110 0 110 0 0 -110 0 -110 -220 0 -220 0 0 110 0 110 -110 0 -110
0 0 105 0 105 110 0 110 0 0 110 0 110 -110 0 -110 0 0 220 0 220 110 0 110 0
0 -220z m2190 110 l0 -110 -110 0 -110 0 0 -110 0 -110 -110 0 -110 0 0 -110
0 -110 -110 0 -110 0 0 -105 0 -105 -110 0 -110 0 0 105 0 105 110 0 110 0 0
110 0 110 110 0 110 0 0 220 0 220 220 0 220 0 0 -110z m650 -2190 l0 -110
110 0 110 0 0 110 0 110 220 0 220 0 0 -110 0 -110 -110 0 -110 0 0 -220 0
-220 -330 0 -330 0 0 -105 0 -105 -215 0 -215 0 0 -110 0 -110 110 0 110 0 0
-110 0 -110 -110 0 -110 0 0 110 0 110 -110 0 -110 0 0 -220 0 -220 -110 0
-110 0 0 110 0 110 -110 0 -110 0 0 110 0 110 220 0 220 0 0 215 0 215 325 0
325 0 0 330 0 330 110 0 110 0 0 -110z m1760 -220 l0 -330 -330 0 -330 0 0
330 0 330 330 0 330 0 0 -330z m-880 -435 l0 -105 -110 0 -110 0 0 105 0 105
110 0 110 0 0 -105z m660 -435 l0 -330 -110 0 -110 0 0 220 0 220 -110 0 -110
0 0 -110 0 -110 -110 0 -110 0 0 -110 0 -110 -110 0 -110 0 0 110 0 110 110 0
110 0 0 110 0 110 110 0 110 0 0 110 0 110 220 0 220 0 0 -330z"/>
<path d="M2850 5145 l0 -105 110 0 110 0 0 -110 0 -110 105 0 105 0 0 215 0
215 -215 0 -215 0 0 -105z"/>
<path d="M3070 4490 l0 -110 105 0 105 0 0 110 0 110 -105 0 -105 0 0 -110z"/>
<path d="M3940 3830 l0 -110 110 0 110 0 0 110 0 110 -110 0 -110 0 0 -110z"/>
<path d="M4820 3390 l0 -110 110 0 110 0 0 110 0 110 -110 0 -110 0 0 -110z"/>
<path d="M1310 3610 l0 -110 220 0 220 0 0 110 0 110 -220 0 -220 0 0 -110z"/>
<path d="M4820 1420 l0 -110 110 0 110 0 0 110 0 110 -110 0 -110 0 0 -110z"/>
<path d="M4820 5585 l0 -765 765 0 765 0 0 765 0 765 -765 0 -765 0 0 -765z
m1310 0 l0 -545 -545 0 -545 0 0 545 0 545 545 0 545 0 0 -545z"/>
<path d="M5260 5580 l0 -330 325 0 325 0 0 330 0 330 -325 0 -325 0 0 -330z"/>
<path d="M1750 4930 l0 -110 110 0 110 0 0 110 0 110 -110 0 -110 0 0 -110z"/>
<path d="M220 1860 l0 -110 220 0 220 0 0 110 0 110 -220 0 -220 0 0 -110z"/>
<path d="M0 765 l0 -765 765 0 765 0 0 765 0 765 -765 0 -765 0 0 -765z m1310
0 l0 -545 -545 0 -545 0 0 545 0 545 545 0 545 0 0 -545z"/>
<path d="M440 765 l0 -325 330 0 330 0 0 325 0 325 -330 0 -330 0 0 -325z"/>
</g>
</svg>
